<svg width="40" height="40" viewBox="0 0 40 40" fill="none" xmlns="http://www.w3.org/2000/svg">
<g clip-path="url(#clip0_4100_92)">
<path d="M20.4719 31.5C20.3974 31.5 20.3229 31.5 20.2479 31.4997C18.4841 31.5039 16.8545 31.4591 15.2697 31.3627C13.8167 31.2743 12.4904 30.7722 11.4339 29.9108C10.4145 29.0796 9.71843 27.9557 9.36497 26.5707C9.05734 25.365 9.04103 24.1814 9.02541 23.0366C9.01408 22.2152 9.0024 21.2418 9 20.252C9.0024 19.2581 9.01408 18.2848 9.02541 17.4634C9.04103 16.3187 9.05734 15.1351 9.36497 13.9292C9.71843 12.5442 10.4145 11.4204 11.4339 10.5892C12.4904 9.72778 13.8167 9.22567 15.2698 9.13727C16.8547 9.04096 18.4847 8.99599 20.2521 9.00028C22.0164 8.9965 23.6455 9.04096 25.2303 9.13727C26.6833 9.22567 28.0096 9.72778 29.0661 10.5892C30.0856 11.4204 30.7816 12.5442 31.135 13.9292C31.4427 15.135 31.459 16.3187 31.4746 17.4634C31.4859 18.2848 31.4978 19.2581 31.5 20.2479V20.252C31.4978 21.2418 31.4859 22.2152 31.4746 23.0366C31.459 24.1812 31.4428 25.3648 31.135 26.5707C30.7816 27.9557 30.0856 29.0796 29.0661 29.9108C28.0096 30.7722 26.6833 31.2743 25.2303 31.3627C23.7126 31.455 22.1535 31.5 20.4719 31.5ZM20.2479 29.7418C21.9829 29.746 23.576 29.7022 25.1236 29.6081C26.2222 29.5413 27.1748 29.1848 27.9552 28.5484C28.6766 27.9602 29.1734 27.1485 29.4317 26.1361C29.6879 25.1324 29.7026 24.0547 29.7169 23.0125C29.728 22.1966 29.7397 21.2302 29.7421 20.25C29.7397 19.2696 29.728 18.3033 29.7169 17.4874C29.7026 16.4453 29.6879 15.3676 29.4317 14.3637C29.1734 13.3512 28.6766 12.5396 27.9552 11.9513C27.1748 11.3151 26.2222 10.9586 25.1236 10.8918C23.576 10.7976 21.9829 10.7541 20.252 10.7579C18.5173 10.7538 16.924 10.7976 15.3764 10.8918C14.2778 10.9586 13.3252 11.3151 12.5448 11.9513C11.8234 12.5396 11.3266 13.3512 11.0683 14.3637C10.8121 15.3676 10.7974 16.4451 10.7831 17.4874C10.772 18.304 10.7603 19.271 10.7579 20.252C10.7603 21.2288 10.772 22.1959 10.7831 23.0125C10.7974 24.0547 10.8121 25.1324 11.0683 26.1361C11.3266 27.1485 11.8234 27.9602 12.5448 28.5484C13.3252 29.1846 14.2778 29.5412 15.3764 29.6079C16.924 29.7022 18.5176 29.7461 20.2479 29.7418ZM20.206 25.7431C17.1771 25.7431 14.7126 23.2789 14.7126 20.25C14.7126 17.221 17.1771 14.7568 20.206 14.7568C23.235 14.7568 25.6993 17.221 25.6993 20.25C25.6993 23.2789 23.235 25.7431 20.206 25.7431ZM20.206 16.5146C18.1463 16.5146 16.4705 18.1904 16.4705 20.25C16.4705 22.3096 18.1463 23.9853 20.206 23.9853C22.2658 23.9853 23.9415 22.3096 23.9415 20.25C23.9415 18.1904 22.2658 16.5146 20.206 16.5146ZM26.3146 12.999C25.5866 12.999 24.9962 13.5891 24.9962 14.3173C24.9962 15.0455 25.5866 15.6357 26.3146 15.6357C27.0428 15.6357 27.633 15.0455 27.633 14.3173C27.633 13.5891 27.0428 12.999 26.3146 12.999Z" fill="white"/>
</g>
<defs>
<clipPath id="clip0_4100_92">
<rect width="40" height="40" rx="6" fill="white"/>
</clipPath>
</defs>
</svg>
