<svg width="157" height="58" viewBox="0 0 157 58" fill="none" xmlns="http://www.w3.org/2000/svg">
<path d="M44.8047 6.16975C44.8047 5.00889 44.3297 4.02001 43.358 3.22461C42.3863 2.4292 41.3067 2.02075 40.0975 2.02075C38.8883 2.02075 38.4781 2.23573 37.8087 2.64418C37.1177 3.07412 36.5995 3.69755 36.2324 4.53595L23.2985 32.6761L10.3645 4.55745C9.99739 3.71905 9.45758 3.07412 8.76661 2.66567C8.05405 2.23573 7.27672 2.04225 6.43461 2.04225C5.18223 2.04225 4.05942 2.4507 3.04457 3.2461C2.02971 4.04151 1.53308 5.05189 1.53308 6.25574C1.53308 7.4596 1.68423 7.4381 1.96493 7.99703L18.2674 42.2639C18.6992 43.1883 19.3686 43.8977 20.2539 44.3921C21.1392 44.8866 22.1109 45.1446 23.1473 45.1446C24.1837 45.1446 25.1554 44.8866 26.0407 44.3921C26.926 43.8977 27.5954 43.1883 28.0272 42.2639L44.3729 7.97553C44.6536 7.37361 44.8047 6.77168 44.8047 6.16975Z" fill="white"/>
<path d="M88.7029 15.2632H84.4707V10.5768C84.4707 9.24396 84.0605 8.21208 83.2616 7.45968C82.4626 6.70727 81.3398 6.32031 79.9363 6.32031C78.5328 6.32031 77.41 6.70727 76.5894 7.45968C75.7689 8.21208 75.3586 9.26546 75.3586 10.5768V15.2632H72.9403C71.6015 15.2632 70.6083 15.5642 69.9173 16.1446C69.2263 16.7251 68.8809 17.585 68.8809 18.7028C68.8809 19.8207 69.2263 20.6161 69.9173 21.1965C70.6083 21.7769 71.6015 22.0779 72.9403 22.0779H75.3586V22.1424V40.9741C75.3586 42.393 75.7905 43.4463 76.6542 44.1772C77.5179 44.9082 78.6191 45.2736 79.9579 45.2736C81.2966 45.2736 82.3331 44.9082 83.1968 44.1772C84.0605 43.4463 84.4923 42.393 84.4923 40.9741V22.1424V22.0779H88.7245C90.0848 22.0779 91.1213 21.7984 91.8122 21.1965C92.5032 20.6161 92.8487 19.7777 92.8487 18.7028C92.8487 16.4241 91.4883 15.2847 88.7461 15.2847L88.7029 15.2632Z" fill="white"/>
<path d="M118.954 37.9859H106.69L120.768 22.2928C121.61 21.4114 122.042 20.3581 122.042 19.1757C122.042 17.9934 121.675 17.1765 120.919 16.4025C120.163 15.6501 119.17 15.2632 117.939 15.2632H99.0889C96.3467 15.2632 94.9863 16.4025 94.9863 18.6813C94.9863 20.96 96.3467 22.0564 99.0889 22.0564H110.684L96.5626 37.814C95.7205 38.6954 95.2886 39.7487 95.2886 40.9311C95.2886 42.1134 95.6773 42.8659 96.433 43.6398C97.1888 44.3922 98.182 44.7791 99.3912 44.7791H118.954C121.696 44.7791 123.057 43.6613 123.057 41.404C123.057 39.1468 121.696 37.9859 118.954 37.9859Z" fill="white"/>
<path d="M154.107 15.8867C153.222 15.1558 152.185 14.7688 151.019 14.7688C149.853 14.7688 149.529 14.9623 148.881 15.3708C148.212 15.7792 147.694 16.4026 147.348 17.241L140.05 33.4716L132.557 17.241C132.147 16.4026 131.607 15.7577 130.916 15.3493C130.225 14.9193 129.491 14.7258 128.692 14.7258C127.483 14.7258 126.404 15.1128 125.453 15.8652C124.503 16.6176 124.028 17.542 124.028 18.6384C124.028 19.7347 124.158 19.6917 124.395 20.2722L135.149 42.221L131.154 50.4545C130.873 51.0135 130.722 51.6154 130.722 52.2603C130.722 53.2922 131.154 54.1951 131.996 54.9045C132.838 55.6139 133.831 55.9794 134.954 55.9794C136.077 55.9794 136.444 55.7644 137.135 55.3559C137.826 54.926 138.366 54.3026 138.776 53.4642L155.014 20.2722C155.294 19.7132 155.446 19.1543 155.446 18.5954C155.446 17.5635 154.992 16.6606 154.107 15.9297V15.8867Z" fill="white"/>
<path d="M48.7989 23.9697C48.7989 24.1416 48.9285 24.2706 49.0796 24.2706C49.2524 24.2706 49.3819 24.1201 49.3819 23.9697C49.3819 23.7977 49.2524 23.6687 49.0796 23.6687C48.9285 23.6687 48.7773 23.8192 48.7773 23.9697H48.7989Z" fill="white"/>
<path d="M59.9196 27.4092C59.79 27.6671 59.79 27.9466 59.8332 28.2261C59.9412 28.914 60.2435 29.5374 60.6537 30.0749C60.9992 30.5048 61.4095 30.9347 61.7765 31.3432C61.7765 31.3432 61.8197 31.3862 61.8413 31.4077C62.0141 31.6012 62.2948 31.7302 62.5539 31.7302H65.6848C66.4406 31.7302 67.0451 31.4937 67.4554 31.0422C67.8873 30.5908 68.0816 29.9029 68.0816 29.0215C68.0816 26.0978 67.5202 23.5396 66.3974 21.3469C65.2746 19.1542 63.6983 17.4774 61.647 16.295C59.6173 15.1127 57.2421 14.5322 54.543 14.5322C51.8439 14.5322 49.2096 15.1771 46.9856 16.4885C44.7831 17.7998 43.0341 19.6056 41.8034 21.9273C40.551 24.2491 39.9248 26.9147 39.9248 29.9244C39.9248 32.934 40.5726 35.7717 41.8466 38.0719C43.1421 40.3721 44.9775 42.1564 47.3743 43.4032C49.771 44.6501 52.5781 45.2735 55.7954 45.2735C59.0127 45.2735 58.9911 45.037 60.8049 44.5856C62.6187 44.1342 64.2165 43.5322 65.5769 42.8228C66.2894 42.4144 66.8724 41.9199 67.2611 41.3395C67.6713 40.7591 67.8657 40.1356 67.8657 39.4477C67.8657 38.4588 67.6066 37.6204 67.1099 36.9755C66.6133 36.3306 65.9439 36.0081 65.145 36.0081C64.3461 36.0081 64.6268 36.0511 64.3461 36.1156C64.3461 36.1156 64.3461 36.1156 64.3029 36.1156C64.1301 36.1586 63.9574 36.2016 63.7631 36.2661C61.1288 36.997 50.7859 39.4262 48.8426 33.278C48.4971 31.9021 48.5619 30.3543 49.3392 28.656C49.3824 28.5055 49.404 28.3551 49.404 28.2046C49.4256 27.6671 48.9937 27.2372 48.4539 27.2157C48.2812 27.2157 48.0868 27.2157 47.9141 27.2157C47.3743 27.2157 46.9856 26.9792 46.7049 26.5493C46.4458 26.1408 46.3378 25.6464 46.2083 25.1734C46.0787 24.7005 46.2514 24.808 46.4026 24.722C46.5537 24.636 46.4458 24.7005 46.4674 24.679C46.856 24.507 47.2231 24.335 47.6118 24.1846C47.7413 24.1416 47.8277 24.0341 47.8709 23.9051C48.13 22.8087 48.8642 21.9703 50.2461 21.5834C50.3325 21.5619 50.4188 21.5404 50.5052 21.5189C51.2825 21.3899 52.0383 21.4329 52.7724 21.7339C53.2475 21.9273 53.6577 22.1853 53.96 22.5938C54.1975 22.9162 54.2407 23.2602 54.0464 23.6041C53.9816 23.7116 53.9168 23.7976 53.8521 23.9051C53.377 24.55 52.902 25.1734 52.4485 25.8184C52.4053 25.8829 52.3622 25.9473 52.319 25.9903C52.1678 26.1623 51.8871 26.1838 51.736 25.9903C51.5848 25.7969 51.6928 25.9473 51.6712 25.9044C51.5416 25.6894 51.4337 25.4529 51.3473 25.2164C51.153 24.7435 51.045 24.2491 50.937 23.7546C50.8507 23.3892 50.7427 23.0237 50.5268 22.7227C50.4404 22.6153 50.3325 22.5078 50.2461 22.4003C50.2461 22.5938 50.2893 22.7657 50.3109 22.9377C50.3325 23.3032 50.3756 23.6901 50.3972 24.0556C50.4404 24.6575 50.5484 25.2594 50.7859 25.8399C50.937 26.1838 51.1098 26.5063 51.3689 26.7643C51.6712 27.0867 52.1031 27.1512 52.4917 26.9362C52.6213 26.8717 52.7292 26.7857 52.8156 26.6783C53.1179 26.3343 53.3554 25.9259 53.6577 25.6034C53.8089 25.4314 53.8952 25.2379 54.0248 25.066C54.0248 25.066 54.068 25.0445 54.0896 25.023C54.0896 25.0445 54.1328 25.066 54.1328 25.0875C54.1543 25.1949 54.1975 25.3024 54.2191 25.4314C54.2839 25.8829 54.3271 26.3343 54.3919 26.7857C54.4351 27.1727 54.4782 27.5812 54.651 27.9466C54.6726 28.0111 54.7158 28.0756 54.7373 28.1401L55.0396 28.0971C55.0396 28.0111 55.0612 27.9466 55.0828 27.8606C55.1908 27.3017 55.2988 26.7428 55.4931 26.2053C55.7522 25.4529 56.0545 24.722 56.5295 24.0771C57.0046 23.4322 56.6159 23.9051 56.6375 23.8191C56.6807 23.4966 56.7239 23.1957 56.7886 22.8732C56.9398 22.1638 57.1989 21.4974 57.5876 20.8955C57.7171 20.6805 57.9762 20.6805 58.1274 20.8955C58.3001 21.1749 58.4729 21.4329 58.624 21.7124C58.7752 21.9918 58.9479 22.2498 59.0991 22.5293C59.2502 22.8087 59.207 22.6582 59.2934 22.6582C59.4445 22.6582 59.5957 22.6582 59.7684 22.7012C60.1787 22.7657 60.5458 22.9162 60.8697 23.1957C61.2151 23.4966 61.4311 23.8836 61.5606 24.3135C61.5822 24.3995 61.647 24.4855 61.7118 24.5285C61.9277 24.6575 62.1436 24.808 62.3595 24.9585C62.4891 25.0445 62.5323 25.1734 62.4675 25.3239C62.338 25.7109 62.1436 26.0978 61.8845 26.4203C61.6902 26.6568 61.4527 26.8287 61.1504 26.8932C60.956 26.9362 60.7401 26.9362 60.5242 26.9792C60.2435 27.0222 60.0275 27.1512 59.8764 27.4092H59.9196Z" fill="white"/>
<path d="M60.8049 24.2706C60.8049 24.2706 60.8481 24.2491 60.8481 24.2276C60.8697 23.9697 60.6106 23.6902 60.3299 23.6687C60.2435 23.6902 60.1572 23.7117 60.0708 23.7332C60.006 23.7332 59.9844 23.7762 60.0276 23.8407C60.0924 23.9267 60.1356 24.0127 60.2003 24.0772C60.3515 24.2491 60.5674 24.2921 60.7833 24.2491L60.8049 24.2706Z" fill="white"/>
</svg>
