<svg width="26" height="22" viewBox="0 0 26 22" fill="none" xmlns="http://www.w3.org/2000/svg">
<path d="M19.9333 21.1309H6.06667C4.96889 21.1309 3.95778 20.8564 3.03333 20.3075C2.10889 19.7586 1.37222 19.022 0.823333 18.0975C0.274444 17.1731 0 16.162 0 15.0642V6.74419C0 5.64641 0.274444 4.6353 0.823333 3.71086C1.37222 2.78642 2.10889 2.04975 3.03333 1.50086C3.95778 0.951971 4.96889 0.677526 6.06667 0.677526H19.9333C21.0311 0.677526 22.0422 0.951971 22.9667 1.50086C23.8911 2.04975 24.6278 2.78642 25.1767 3.71086C25.7256 4.6353 26 5.64641 26 6.74419V15.0642C26 16.162 25.7256 17.1731 25.1767 18.0975C24.6278 19.022 23.8911 19.7586 22.9667 20.3075C22.0422 20.8564 21.0311 21.1309 19.9333 21.1309ZM6.06667 2.67086C4.96889 2.67086 4.01556 3.0753 3.20667 3.88419C2.39778 4.69308 1.99333 5.64641 1.99333 6.74419V15.0642C1.99333 16.162 2.39778 17.1153 3.20667 17.9242C4.01556 18.7331 4.96889 19.1375 6.06667 19.1375H19.9333C21.0311 19.1375 21.9844 18.7331 22.7933 17.9242C23.6022 17.1153 24.0067 16.162 24.0067 15.0642V6.74419C24.0067 5.64641 23.6022 4.69308 22.7933 3.88419C21.9844 3.0753 21.0311 2.67086 19.9333 2.67086H6.06667ZM16.7267 12.7242L21.7533 8.91086C21.9844 8.73753 22.1144 8.50642 22.1433 8.21753C22.1722 7.92864 22.1 7.66864 21.9267 7.43753C21.7533 7.20642 21.5222 7.07642 21.2333 7.04753C20.9444 7.01864 20.7133 7.09086 20.54 7.26419L15.5133 11.0775C14.7622 11.6553 13.9244 11.9442 13 11.9442C12.0756 11.9442 11.2667 11.6553 10.5733 11.0775L5.72 7.35086C5.48889 7.17753 5.22889 7.1053 4.94 7.13419C4.65111 7.16308 4.42 7.27864 4.24667 7.48086C4.07333 7.68308 4.01556 7.92864 4.07333 8.21753C4.13111 8.50642 4.24667 8.73753 4.42 8.91086L9.36 12.7242C10.4 13.5331 11.6133 13.9375 13 13.9375C14.3867 13.9375 15.6289 13.5331 16.7267 12.7242Z" fill="#31CAA6"/>
</svg>
