<svg width="32" height="32" viewBox="0 0 32 32" fill="none" xmlns="http://www.w3.org/2000/svg">
<path d="M7.24375 9.39531L9.73984 6.90156C9.91592 6.72471 10.1252 6.58439 10.3557 6.48867C10.5861 6.39294 10.8333 6.34369 11.0828 6.34375C11.5914 6.34375 12.0695 6.54297 12.4281 6.90156L15.1141 9.5875C15.2909 9.76358 15.4312 9.97286 15.527 10.2033C15.6227 10.4338 15.6719 10.6809 15.6719 10.9305C15.6719 11.4391 15.4727 11.9172 15.1141 12.2758L13.15 14.2398C13.6097 15.2532 14.2489 16.175 15.0367 16.9609C15.8225 17.7506 16.7443 18.3922 17.7578 18.8547L19.7219 16.8906C19.898 16.7138 20.1072 16.5735 20.3377 16.4777C20.5682 16.382 20.8153 16.3328 21.0648 16.3328C21.5734 16.3328 22.0516 16.532 22.4102 16.8906L25.0984 19.5742C25.2755 19.7506 25.4159 19.9603 25.5117 20.1912C25.6074 20.4221 25.6565 20.6696 25.6562 20.9195C25.6562 21.4281 25.457 21.9062 25.0984 22.2648L22.607 24.7562C22.0352 25.3305 21.2453 25.6562 20.4344 25.6562C20.2633 25.6562 20.0992 25.6422 19.9375 25.6141C16.7781 25.0938 13.6445 23.4133 11.1156 20.8867C8.58906 18.3625 6.91094 15.2312 6.38359 12.0625C6.22422 11.0945 6.54531 10.0984 7.24375 9.39531Z" fill="white"/>
</svg>
