<svg width="153" height="116" viewBox="0 0 153 116" fill="none" xmlns="http://www.w3.org/2000/svg">
<g clip-path="url(#clip0_57_303)">
<path fill-rule="evenodd" clip-rule="evenodd" d="M152.36 54.0784C150.664 46.6213 146.797 43.2793 138.924 42.147C137.311 41.926 135.697 41.6498 133.861 41.346C135.781 36.6784 137.506 32.3974 139.286 28.1441C140.899 24.3603 141.4 20.4936 141.456 16.3784C141.623 6.02125 127.602 -4.39113 116.558 1.87839C113.387 3.67363 110.077 5.49649 107.545 7.9822C102.371 13.0365 99.4224 19.1403 100.646 26.5422C101.147 29.5251 100.925 29.7736 97.6143 30.9889C90.9935 33.4193 84.345 35.7946 77.8077 38.3632C69.351 41.6774 61.7566 46.5384 54.3014 51.5651C52.1594 53.0012 50.0452 54.4651 47.8197 55.9841C47.0964 55.487 46.7626 55.3765 46.6235 55.1279C46.1228 54.3822 45.7055 53.5812 45.2326 52.8355C40.9486 45.8479 35.6075 40.1308 27.6237 36.6508C17.0528 32.0384 7.37207 37.1755 1.55807 44.9641C0.695711 46.1241 0.0558926 47.6984 0.000256215 49.107C-0.222289 56.8127 2.53171 63.4136 8.56826 68.4403C13.0192 72.1413 17.8317 75.4832 22.7555 79.1841C22.1435 79.7917 21.0586 80.6203 20.2797 81.6698C18.9166 83.4374 17.3588 85.2051 16.5243 87.1936C13.659 94.1812 15.189 100.92 18.3603 107.383C19.0001 108.681 20.1128 109.841 21.2255 110.808C28.4861 116.967 39.3074 117.851 47.2355 112.327C53.2164 108.129 57.5561 102.439 58.7801 95.1755C59.253 92.2755 60.6995 90.5908 63.231 89.5412C65.6234 88.547 68.0992 87.6908 70.5194 86.6965C82.9819 81.6146 95.5001 76.5879 107.907 71.3403C110.578 70.2079 112.219 70.8708 113.971 72.6384C120.064 78.7974 127.324 80.7032 136.087 78.8803C147.298 76.5327 155.393 67.4184 152.36 54.0784ZM142.541 73.0803C139.703 74.8755 136.003 76.0079 132.61 76.2289C125.627 76.6708 119.118 74.9584 114.75 69.1032C113.192 67.0041 111.69 66.5622 109.354 67.5565C102.455 70.4565 95.5279 73.3289 88.6012 76.146C81.5075 79.046 74.4139 81.8632 67.3203 84.7632C64.4828 85.9232 61.701 87.166 58.8357 88.2432C56.8328 88.9889 55.9704 90.2593 55.9426 92.3031C55.7201 102.771 46.8183 111.857 35.5797 113.238C34.1054 113.432 32.4641 113.238 31.101 112.714C25.2592 110.504 18.9444 106.72 19.6677 101.058C21.1977 102.577 22.5608 104.317 24.2855 105.505C25.9824 106.693 28.041 107.549 30.0439 108.184C34.7452 109.62 39.5021 108.709 43.1184 105.836C46.8739 102.881 49.8226 98.9041 52.9383 95.2308C53.4668 94.5955 53.2999 93.3251 53.2999 92.3308C53.3277 91.1708 53.1886 89.9832 53.1608 88.8232C53.0495 85.0117 54.8577 82.9955 58.8079 81.9736C65.4843 80.2336 72.0772 78.1898 78.531 75.8146C84.8457 73.4946 90.9101 70.4841 97.1413 67.9432C102.51 65.7613 107.851 63.4412 113.777 62.7784C116.225 62.5022 117.782 62.9717 119.285 64.8498C121.148 67.1698 123.29 69.3517 125.544 71.3127C129.8 74.9584 135.364 75.4279 140.009 72.6936C142.513 71.2298 144.265 69.186 144.321 66.2308C144.377 63.7451 144.627 61.1489 144.098 58.746C142.902 53.3879 139.119 50.1565 133.917 48.2508C132.025 47.5603 130.301 46.4003 128.492 45.4336C128.437 45.4613 128.381 45.4612 128.326 45.4889V45.406C126.156 46.0136 124.236 45.5441 122.122 44.2736C122.734 43.086 123.29 42.0641 123.763 41.0146C125.989 36.0984 128.993 31.3755 130.189 26.2384C131.302 21.4327 131.386 16.047 130.301 11.2689C128.91 5.02696 122.734 2.7622 117.087 6.46315C110.689 10.6336 107.462 18.9193 109.632 26.5146C110.272 28.7793 111.078 30.9889 111.968 33.6403C109.604 34.6622 107.768 35.8222 105.793 36.2641C95.0828 38.6117 85.9028 44.1355 76.5837 49.3555C68.5999 53.8298 60.9777 58.8841 53.1886 63.6622C52.7992 63.9108 52.4375 64.187 52.0481 64.4355C47.0686 67.3632 45.9281 66.9489 42.117 62.5851C37.6939 57.5308 32.9926 52.6422 28.2635 47.8641C25.6486 45.2127 22.1713 43.9422 18.3881 43.6936C14.6326 43.4451 12.1568 45.1298 11.2666 48.7203C9.95917 54.1336 10.8772 59.1327 15.0499 63.0822C20.9473 68.6612 27.1786 73.8536 35.0233 76.8641C35.5241 77.0574 35.8579 77.5822 36.4977 78.1346C29.8492 84.1555 20.9195 88.0774 19.2226 98.4622C16.8859 89.9003 19.1392 85.5089 29.0703 78.7974C28.2357 77.9965 27.6237 76.8641 26.7335 76.5879C21.1977 74.9032 16.7746 71.6993 12.2959 68.247C7.48335 64.5184 4.67371 59.7403 3.31062 54.1889C1.47462 46.6213 7.39989 41.0698 13.1583 38.8327C20.1406 36.0984 31.4904 39.5232 36.0248 45.3232C37.8608 47.6708 39.8081 49.9632 41.3381 52.4765C42.5621 54.4651 43.1184 56.8127 44.1477 58.9393C44.6763 60.0165 45.5108 60.9555 46.4566 62.2536C53.6894 54.4374 62.4243 49.6593 71.0201 44.8536C76.4446 41.8155 82.5368 39.8822 88.3508 37.5898C92.607 35.9051 96.9744 34.386 101.286 32.867C103.679 32.0384 104.513 30.8784 103.873 28.1717C100.674 14.9146 112.024 5.68982 121.315 2.9003C129.16 0.525059 138.618 8.5622 138.34 16.5441C138.034 25.1889 134.807 32.8117 129.744 39.7717C128.381 41.6498 127.936 43.3622 128.353 45.4336H128.409C128.437 45.4613 128.465 45.4612 128.52 45.4889C134.056 43.307 139.314 45.2403 144.488 46.7041C145.907 47.0908 147.27 48.6098 148.049 49.9632C152.388 57.2546 149.912 68.4403 142.541 73.0803ZM40.0028 75.6489C35.5797 73.3841 30.8784 71.5336 26.7057 68.8822C21.7819 65.7336 16.7468 62.3365 14.3544 56.7851C13.5477 54.8793 13.4364 52.4212 13.7981 50.3498C14.3544 47.146 16.2461 46.207 19.5564 47.0632C23.145 47.9746 26.4832 49.4936 28.959 52.2832C32.9092 56.7851 36.915 61.2317 40.6983 65.8717C44.5372 70.567 46.4288 71.1193 51.9368 67.9984C55.3863 66.0374 58.7244 63.8832 62.0626 61.7565C77.5574 51.9241 93.1912 42.3679 111.384 37.8108C114.973 36.8993 115.64 35.546 114.639 31.8451C113.888 29.1384 112.72 26.487 112.386 23.7251C111.579 17.3174 113.86 10.9098 120.036 8.72792C121.009 9.58411 122.094 10.5508 123.263 11.5451C124.236 10.8822 125.071 10.3298 125.961 9.7222C126.406 10.1365 126.907 10.3851 126.99 10.7441C128.409 16.2955 128.771 21.9574 126.684 27.3984C124.932 31.9832 122.567 36.3746 120.286 40.766C117.059 46.9527 117.17 46.787 123.875 48.3889C128.409 49.466 132.86 51.2889 136.921 53.526C141.289 55.9289 142.958 63.0822 140.677 67.4736C139.536 69.6832 137.589 71.2022 134.863 71.3127C131.135 71.4508 127.88 70.346 125.405 67.6117C123.596 65.6232 121.872 63.5241 120.203 61.4251C118.979 59.8508 117.643 59.3812 115.501 59.5746C111.356 59.9889 107.323 60.5689 103.456 62.226C96.1399 65.3746 88.8237 68.4679 81.4519 71.4784C79.1986 72.4174 76.8063 73.0527 74.4695 73.7432C72.1328 74.4336 69.7404 74.986 67.2646 75.6489C66.0128 75.0412 64.6219 74.3784 62.4799 73.3289C62.5912 75.1793 62.6468 76.0632 62.7303 77.5822C60.7273 78.2174 58.5854 78.8803 56.4434 79.5708C50.4624 81.4765 49.8504 82.1946 49.9617 88.1327C50.073 94.6508 47.0964 99.4841 41.811 103.268C37.221 106.527 32.4919 106.72 27.5403 104.373C23.451 102.412 21.8375 97.1365 24.2855 93.3251C25.4261 91.5574 26.7892 89.8451 28.4026 88.5193C32.2693 85.3432 36.3586 82.4155 40.3088 79.3222C40.9486 78.8251 41.811 77.9689 41.7275 77.3889C41.6719 76.7536 40.7539 76.0355 40.0028 75.6489ZM118.728 16.2403C119.146 14.6936 118.255 13.8098 116.086 13.8651C115.696 15.0527 115.307 16.3232 114.862 17.6765C117.059 18.5051 118.283 17.8698 118.728 16.2403ZM98.5323 54.6308C97.6699 54.1889 97.0857 53.8574 96.4737 53.5536L95.1384 55.9565L97.3083 57.0336C97.6977 56.3155 98.0593 55.5974 98.5323 54.6308ZM116.419 23.5593C117.031 24.0565 117.643 24.5536 118.645 25.327C119.118 24.2498 119.702 23.5041 119.646 22.8413C119.618 22.427 118.394 21.6536 118.088 21.8193C117.393 22.1508 116.948 22.9517 116.419 23.5593ZM61.3394 72.307C61.5897 71.8374 62.0904 71.2574 61.9792 70.8984C61.8123 70.346 61.1724 69.9317 60.3657 69.0203C59.9763 70.1803 59.4477 70.926 59.6424 71.3955C59.865 71.8374 60.7552 72.0032 61.3394 72.307ZM107.601 54.9346C108.102 54.7689 108.352 53.9403 108.936 53.0565C107.851 52.8355 107.072 52.3936 106.6 52.6146C106.154 52.8355 106.043 53.7193 105.793 54.2993C106.405 54.5755 107.1 55.1003 107.601 54.9346ZM55.1359 77.9965C55.6923 77.8584 56.1652 77.2508 57.0554 76.5327C55.9704 76.0355 55.2472 75.4555 54.8021 75.5936C54.3014 75.787 53.9675 76.6155 53.8284 77.2232C53.8006 77.4165 54.7743 78.0793 55.1359 77.9965ZM105.682 50.4879C105.793 49.9632 106.127 49.3555 105.96 48.9412C105.793 48.5546 105.125 48.3612 104.263 47.8365C104.235 48.8584 104.012 49.5212 104.235 49.9079C104.458 50.267 105.181 50.3222 105.682 50.4879ZM127.018 16.2955C125.794 16.2955 125.126 16.1298 124.598 16.3232C124.153 16.4889 123.875 17.0689 123.541 17.4555C124.069 17.8422 124.542 18.3393 125.126 18.5327C125.293 18.5879 125.766 17.787 127.018 16.2955Z" fill="#0154FA"/>
</g>
<defs>
<clipPath id="clip0_57_303">
<rect width="153" height="116" fill="white"/>
</clipPath>
</defs>
</svg>
